<svg id="svg" version="1.1" xmlns="http://www.w3.org/2000/svg" xmlns:xlink="http://www.w3.org/1999/xlink" width="400" height="400" viewBox="0, 0, 400,400"><g id="svgg"><path id="path0" d="M250.417 24.018 C 247.357 24.460,243.694 25.781,241.333 27.296 C 239.506 28.468,239.135 28.737,237.951 29.748 C 236.977 30.578,235.658 31.993,234.513 33.433 C 233.853 34.263,232.494 37.132,232.271 38.167 L 232.181 38.583 229.882 38.599 C 227.677 38.614,225.899 38.916,224.583 39.498 C 224.400 39.579,223.876 39.804,223.418 39.998 C 220.539 41.218,217.448 44.278,216.094 47.250 C 215.843 47.800,215.578 48.366,215.505 48.509 C 214.227 50.994,214.274 56.861,215.595 59.775 C 215.726 60.064,215.833 60.357,215.833 60.425 C 215.833 60.494,216.213 61.143,216.678 61.867 L 217.523 63.184 217.053 63.546 C 212.993 66.678,209.379 74.262,208.807 80.853 C 208.469 84.744,209.223 89.501,210.595 92.131 C 210.725 92.380,210.832 92.671,210.832 92.778 C 210.833 92.885,210.890 92.997,210.958 93.028 C 211.027 93.058,211.214 93.346,211.374 93.667 C 212.497 95.920,214.897 98.668,217.417 100.585 C 223.036 104.859,230.097 106.507,236.850 105.121 L 237.951 104.895 238.347 105.730 C 238.721 106.518,239.893 108.537,240.193 108.911 C 240.269 109.006,240.686 109.533,241.120 110.083 C 242.832 112.253,244.579 113.868,247.122 115.630 C 248.204 116.381,251.289 118.035,252.000 118.246 C 252.229 118.315,252.642 118.471,252.917 118.593 C 253.906 119.033,255.753 119.465,258.853 119.983 C 260.185 120.205,262.770 120.222,264.011 120.017 C 264.509 119.934,265.479 119.777,266.167 119.666 C 267.785 119.407,269.884 118.772,271.417 118.080 C 271.692 117.956,272.179 117.739,272.500 117.599 C 273.668 117.089,275.339 116.070,277.000 114.854 C 278.134 114.025,281.119 111.175,281.897 110.179 C 282.773 109.058,283.935 107.191,284.671 105.724 L 285.493 104.083 286.871 103.807 C 292.307 102.718,297.679 100.396,301.065 97.670 C 303.153 95.991,305.417 93.584,306.453 91.943 C 307.163 90.818,307.836 89.615,308.099 89.000 C 308.236 88.679,308.418 88.267,308.503 88.083 C 310.141 84.559,310.483 78.129,309.186 75.250 C 309.103 75.067,308.912 74.570,308.762 74.145 C 307.665 71.054,303.855 66.919,301.229 65.970 C 300.524 65.715,300.512 65.816,301.485 63.789 C 301.935 62.851,302.393 61.746,302.503 61.333 C 302.613 60.921,302.769 60.433,302.850 60.250 C 302.931 60.067,303.148 58.962,303.332 57.794 C 304.856 48.131,300.301 38.851,292.024 34.757 C 289.680 33.598,289.494 33.527,286.917 32.826 C 283.475 31.889,276.646 32.130,274.831 33.251 C 274.736 33.310,273.953 32.691,273.091 31.875 C 270.496 29.419,266.460 26.953,262.250 25.251 C 259.200 24.018,254.100 23.487,250.417 24.018 M235.167 120.938 C 225.945 122.738,225.513 135.752,234.592 138.248 C 236.817 138.860,240.250 138.253,241.965 136.944 C 249.405 131.269,244.263 119.163,235.167 120.938 M216.230 138.825 C 211.936 139.850,210.336 145.265,213.415 148.351 C 216.715 151.657,222.273 149.929,223.007 145.367 C 223.651 141.371,220.065 137.909,216.230 138.825 " stroke="none" fill="#8cdcfc" fill-rule="evenodd"></path><path id="path1" d="M132.892 219.040 C 132.644 219.350,130.702 221.063,129.706 221.851 C 128.628 222.704,125.819 224.476,123.984 225.460 C 121.565 226.758,116.959 229.000,116.711 229.000 C 116.659 229.000,116.121 229.234,115.516 229.521 C 114.911 229.807,113.777 230.323,112.995 230.668 C 104.447 234.436,98.302 238.675,95.250 242.908 C 95.067 243.162,94.840 243.456,94.747 243.560 C 94.321 244.035,93.449 245.564,92.691 247.167 C 91.977 248.675,91.601 249.704,90.836 252.250 C 90.304 254.020,89.973 257.652,90.047 260.917 C 90.153 265.588,90.671 268.884,92.067 273.750 C 92.093 273.842,92.172 274.142,92.241 274.417 C 92.376 274.946,92.959 276.809,93.597 278.750 C 94.081 280.220,96.950 288.136,97.162 288.583 C 97.248 288.767,97.665 289.817,98.088 290.917 C 98.511 292.017,98.957 293.142,99.079 293.417 C 99.201 293.692,99.654 294.779,100.085 295.833 C 100.822 297.637,101.051 298.160,102.083 300.406 C 102.313 300.905,102.500 301.345,102.500 301.385 C 102.500 301.507,105.117 306.928,106.418 309.500 C 108.580 313.776,109.058 314.647,109.228 314.615 C 109.320 314.597,110.024 315.671,110.792 317.000 C 126.787 344.657,142.071 357.213,155.541 353.761 C 167.046 350.813,174.065 337.408,178.237 310.417 C 179.753 300.607,180.574 292.755,182.253 272.000 C 182.964 263.215,183.653 256.975,184.151 254.807 C 184.303 254.146,183.971 253.779,181.167 251.500 C 179.831 250.414,179.756 250.244,180.350 249.650 C 180.770 249.230,180.855 249.316,178.583 247.842 C 171.776 243.424,162.929 240.696,155.325 240.669 L 154.566 240.667 154.358 242.375 C 153.745 247.413,152.195 257.532,150.484 267.667 C 148.699 278.234,147.622 284.595,146.915 288.750 C 146.509 291.133,145.955 294.385,145.684 295.976 C 145.413 297.567,145.229 298.968,145.275 299.088 C 145.321 299.209,145.281 299.453,145.186 299.630 C 145.091 299.807,144.404 303.545,143.660 307.935 C 142.916 312.325,142.101 317.130,141.849 318.614 C 141.366 321.469,141.195 321.880,140.531 321.800 C 139.579 321.685,139.445 322.953,141.988 307.954 L 143.507 298.991 142.565 296.537 C 136.861 281.694,129.362 267.242,120.204 253.446 C 117.223 248.955,117.048 248.500,118.304 248.500 C 118.909 248.500,118.877 248.461,121.453 252.333 C 130.019 265.213,137.059 278.510,142.704 292.475 C 143.966 295.596,143.965 295.593,144.064 295.486 C 144.099 295.448,144.437 293.579,144.814 291.333 C 145.192 289.087,145.953 284.587,146.505 281.333 C 151.407 252.458,152.223 247.101,153.577 234.917 C 154.279 228.610,154.269 228.833,153.845 228.833 C 148.971 228.833,139.825 224.547,134.392 219.715 L 133.200 218.655 132.892 219.040 M193.167 220.006 C 191.535 221.503,187.944 224.582,186.917 225.363 C 183.965 227.609,183.754 228.103,183.164 234.167 C 182.982 236.046,182.683 239.008,182.500 240.750 C 182.317 242.492,182.042 245.222,181.888 246.816 L 181.608 249.716 182.012 250.039 C 183.222 251.005,185.704 253.259,185.842 253.516 C 185.951 253.719,185.871 254.566,185.589 256.198 C 184.967 259.797,184.528 264.210,183.328 278.917 C 181.669 299.256,180.161 310.960,177.786 321.927 L 177.242 324.438 178.063 324.308 C 178.515 324.237,178.947 324.217,179.024 324.265 C 179.100 324.312,179.125 324.251,179.078 324.129 C 178.769 323.325,178.586 323.355,203.000 320.241 C 209.312 319.437,211.883 319.107,217.833 318.339 C 219.896 318.073,223.121 317.659,225.000 317.419 C 229.204 316.883,228.876 316.996,228.759 316.126 C 228.707 315.736,228.250 312.079,227.745 308.000 C 225.876 292.924,223.914 279.231,221.326 263.209 C 220.385 257.384,220.385 257.333,221.348 257.333 C 222.048 257.333,222.040 257.305,223.314 265.256 C 225.865 281.191,227.397 291.942,229.412 308.055 C 229.995 312.715,230.507 316.563,230.551 316.606 C 230.594 316.650,231.465 316.568,232.487 316.426 C 235.093 316.062,235.467 316.078,235.687 316.562 C 236.148 317.573,235.961 317.644,231.250 318.253 C 229.417 318.490,226.829 318.827,225.500 319.001 C 224.171 319.175,221.883 319.472,220.417 319.661 C 218.950 319.849,216.887 320.117,215.833 320.255 C 214.779 320.393,206.642 321.440,197.750 322.583 C 188.858 323.726,181.311 324.704,180.977 324.758 L 180.371 324.856 180.861 326.128 C 183.601 333.245,184.739 343.442,183.590 350.583 C 183.443 351.500,183.278 352.562,183.224 352.942 L 183.126 353.635 184.021 353.812 C 189.502 354.900,204.796 355.881,216.583 355.901 C 232.111 355.928,237.633 355.544,241.667 354.159 C 241.896 354.080,242.421 353.934,242.833 353.834 C 243.246 353.734,243.733 353.591,243.917 353.515 C 244.100 353.439,244.887 353.126,245.667 352.820 C 253.923 349.567,258.343 343.329,258.330 334.946 C 258.326 332.008,257.954 329.134,256.990 324.583 C 256.796 323.667,256.498 322.242,256.328 321.417 C 255.620 317.980,255.490 317.366,255.253 316.333 C 255.030 315.356,254.724 313.980,253.828 309.917 C 253.666 309.183,253.379 307.908,253.189 307.083 C 253.000 306.258,252.731 305.058,252.592 304.417 C 252.453 303.775,252.265 302.987,252.174 302.667 C 252.083 302.346,251.668 300.658,251.253 298.917 C 250.838 297.175,250.423 295.487,250.330 295.167 C 250.238 294.846,250.058 294.133,249.931 293.583 C 249.804 293.033,249.426 291.571,249.091 290.333 C 248.756 289.096,248.409 287.783,248.320 287.417 C 248.230 287.050,248.016 286.262,247.843 285.667 C 247.671 285.071,247.330 283.833,247.086 282.917 C 246.842 282.000,246.578 281.063,246.498 280.833 C 246.419 280.604,246.156 279.742,245.914 278.917 C 245.672 278.092,245.410 277.229,245.331 277.000 C 245.253 276.771,244.950 275.796,244.660 274.833 C 243.550 271.156,242.453 267.753,242.161 267.083 C 242.081 266.900,241.924 266.412,241.812 266.000 C 241.700 265.587,241.556 265.175,241.493 265.083 C 241.429 264.992,241.287 264.617,241.177 264.250 C 241.067 263.883,240.912 263.433,240.834 263.250 C 240.755 263.067,240.429 262.167,240.110 261.250 C 239.791 260.333,239.308 259.021,239.036 258.333 C 238.764 257.646,238.074 255.883,237.503 254.417 C 236.931 252.950,236.257 251.300,236.004 250.750 C 235.751 250.200,235.339 249.230,235.088 248.595 C 234.837 247.960,234.570 247.322,234.493 247.178 C 234.417 247.034,234.108 246.354,233.806 245.667 C 226.744 229.566,219.566 223.732,203.250 220.829 C 200.372 220.317,198.039 219.886,196.500 219.581 C 194.016 219.090,194.189 219.068,193.167 220.006 M107.083 263.002 C 111.398 263.201,114.494 263.521,118.499 264.183 C 121.825 264.733,122.000 264.800,122.000 265.515 C 122.000 266.343,121.658 266.375,118.476 265.844 C 113.308 264.981,107.745 264.507,102.729 264.502 C 100.096 264.500,99.799 264.390,100.099 263.532 C 100.346 262.827,101.457 262.743,107.083 263.002 M109.602 318.958 C 109.647 319.302,109.721 319.808,109.766 320.083 C 109.812 320.358,109.996 321.821,110.174 323.333 C 110.353 324.846,110.607 326.908,110.740 327.917 C 110.873 328.925,111.110 330.875,111.268 332.250 C 111.425 333.625,111.562 334.764,111.572 334.781 C 111.582 334.798,112.189 334.602,112.920 334.344 C 113.652 334.086,115.198 333.632,116.356 333.334 C 117.514 333.037,118.551 332.738,118.660 332.671 C 118.797 332.586,118.452 331.976,117.565 330.732 C 115.743 328.176,113.167 324.216,111.260 321.042 C 109.460 318.044,109.488 318.080,109.602 318.958 M120.810 337.585 C 118.984 337.949,117.199 338.488,115.000 339.339 C 113.854 339.783,112.785 340.186,112.625 340.234 C 112.465 340.283,112.333 340.484,112.333 340.681 C 112.333 341.110,112.245 341.124,115.390 340.191 C 117.745 339.492,122.244 338.500,123.061 338.500 L 123.514 338.500 123.049 337.917 C 122.536 337.274,122.442 337.260,120.810 337.585 M129.621 345.335 L 130.155 345.921 128.286 346.226 C 124.649 346.819,122.001 347.528,119.221 348.651 C 115.859 350.010,114.000 349.484,114.000 347.175 C 114.000 346.491,113.826 346.351,113.350 346.653 C 113.110 346.805,113.172 347.539,113.924 353.417 C 114.041 354.333,114.293 356.358,114.484 357.917 C 114.936 361.596,115.416 365.442,115.827 368.667 C 116.008 370.087,116.284 372.356,116.441 373.708 L 116.725 376.167 174.458 376.167 L 232.190 376.167 232.124 374.708 C 231.973 371.385,231.448 364.407,231.339 364.286 C 231.275 364.214,229.466 364.009,227.319 363.830 C 212.002 362.553,199.973 360.280,190.376 356.850 C 189.094 356.392,187.783 356.086,185.770 355.774 C 182.511 355.270,181.828 354.863,182.728 353.962 C 182.963 353.727,182.720 353.674,174.000 352.070 C 171.752 351.657,165.259 351.223,164.097 351.408 C 163.704 351.471,163.079 351.778,162.588 352.148 C 155.922 357.180,146.771 357.199,138.334 352.199 C 137.463 351.683,136.687 351.279,136.609 351.302 C 136.532 351.325,134.845 351.683,132.859 352.097 C 130.874 352.511,127.802 353.153,126.033 353.522 C 121.003 354.573,119.674 354.233,120.556 352.123 C 121.100 350.821,125.552 348.423,129.604 347.249 C 130.406 347.016,131.084 346.805,131.110 346.778 C 131.137 346.752,130.692 346.285,130.122 345.740 C 129.553 345.196,129.327 345.013,129.621 345.335 " stroke="none" fill="#d3bb54" fill-rule="evenodd"></path><path id="path2" d="M158.833 90.268 C 154.256 90.673,150.611 91.690,146.422 93.732 C 144.926 94.461,143.056 95.561,142.833 95.844 C 142.787 95.902,142.563 96.047,142.333 96.166 C 142.104 96.284,141.456 96.746,140.893 97.191 C 139.703 98.132,139.733 98.122,139.601 97.593 C 139.111 95.640,135.707 94.893,133.083 96.163 C 129.497 97.898,126.570 100.616,123.924 104.667 C 122.937 106.179,120.833 110.084,120.833 110.406 C 120.833 110.479,120.570 111.100,120.249 111.787 C 119.927 112.473,119.617 113.233,119.559 113.476 C 119.501 113.718,119.399 113.992,119.332 114.083 C 119.265 114.175,119.120 114.550,119.010 114.917 C 118.900 115.283,118.744 115.733,118.662 115.917 C 118.581 116.100,118.127 117.412,117.653 118.833 C 116.616 121.946,115.084 126.218,114.746 126.942 C 114.610 127.231,114.500 127.503,114.500 127.548 C 114.500 128.038,111.405 133.802,110.900 134.250 C 110.559 134.554,109.719 135.899,109.089 137.152 C 106.978 141.353,106.434 146.534,107.565 151.667 C 107.919 153.273,108.320 154.683,108.592 155.275 C 108.725 155.564,108.833 155.864,108.833 155.942 C 108.831 156.394,111.284 161.469,111.766 162.013 C 111.895 162.158,112.000 162.328,112.000 162.392 C 112.000 162.504,112.826 163.832,113.000 164.000 C 113.048 164.046,113.305 164.421,113.572 164.833 C 114.217 165.828,116.747 169.246,117.121 169.627 C 117.284 169.792,117.679 170.279,118.000 170.709 C 118.723 171.676,118.653 171.682,119.487 170.600 C 121.930 167.434,126.433 166.238,130.561 167.659 C 131.933 168.131,132.101 167.969,131.428 166.827 C 129.369 163.334,129.169 159.410,130.605 150.667 C 131.611 144.548,130.591 137.758,128.151 134.314 C 127.758 133.759,127.425 134.036,132.583 130.634 C 144.318 122.895,154.896 116.537,167.231 109.808 L 170.546 108.000 171.837 108.930 C 173.350 110.019,175.421 111.891,177.442 113.998 C 179.145 115.772,179.025 115.737,179.382 114.577 C 181.359 108.156,178.361 100.999,172.481 98.105 L 171.083 97.417 170.583 96.000 C 169.043 91.636,165.102 89.713,158.833 90.268 M182.863 125.671 C 179.975 126.428,177.679 128.130,176.022 130.742 C 175.394 131.733,175.376 131.951,175.904 132.191 C 176.574 132.497,177.164 132.206,178.489 130.918 C 180.920 128.554,183.122 127.627,186.375 127.600 C 187.452 127.591,188.333 127.563,188.333 127.538 C 188.333 127.512,188.027 127.006,187.652 126.413 L 186.970 125.333 185.527 125.343 C 184.668 125.348,183.589 125.481,182.863 125.671 M185.667 134.111 C 182.918 135.242,183.561 139.205,186.493 139.205 C 189.803 139.205,189.989 134.287,186.687 134.061 C 186.263 134.032,185.804 134.055,185.667 134.111 M156.880 138.409 C 153.303 139.218,150.295 141.726,148.839 145.114 C 147.687 147.797,149.236 148.056,150.948 145.466 C 152.953 142.433,155.961 140.596,159.491 140.248 C 161.179 140.082,162.193 139.144,161.397 138.484 C 161.012 138.164,158.172 138.117,156.880 138.409 M161.870 147.035 C 160.264 147.571,159.654 149.834,160.761 151.150 C 162.850 153.632,166.683 150.801,164.985 148.031 C 164.447 147.153,162.950 146.675,161.870 147.035 " stroke="none" fill="#5d2d3d" fill-rule="evenodd"></path><path id="path3" d="M169.583 108.556 C 169.217 108.768,167.829 109.530,166.500 110.249 C 158.581 114.532,149.115 120.101,140.626 125.469 C 135.740 128.559,128.000 133.688,128.000 133.836 C 128.000 133.904,128.263 134.396,128.584 134.929 C 130.841 138.678,131.543 144.264,130.582 150.833 C 129.221 160.139,129.393 163.377,131.424 166.750 C 132.281 168.174,132.167 168.275,130.411 167.641 C 125.148 165.741,118.975 168.914,117.504 174.276 C 115.094 183.059,124.162 190.840,132.930 187.511 L 133.744 187.202 134.142 187.893 C 137.217 193.224,138.924 198.845,138.989 203.854 C 139.057 209.172,137.480 213.670,134.135 217.689 L 133.271 218.727 134.094 219.465 C 139.664 224.462,148.880 228.833,153.845 228.833 C 154.197 228.833,154.206 228.876,154.097 230.042 C 153.947 231.655,153.204 238.380,153.066 239.369 L 152.956 240.154 153.465 239.962 C 154.000 239.760,154.500 239.974,154.500 240.405 C 154.500 240.543,155.357 240.663,157.292 240.798 C 165.328 241.358,172.154 243.666,179.068 248.160 C 180.342 248.989,181.437 249.667,181.499 249.667 C 181.562 249.667,181.738 248.373,181.890 246.792 C 182.043 245.210,182.317 242.492,182.500 240.750 C 182.683 239.008,182.982 236.046,183.164 234.167 C 183.762 228.016,183.924 227.653,187.167 225.161 C 187.854 224.633,189.204 223.511,190.167 222.668 C 191.129 221.825,192.908 220.279,194.119 219.232 C 197.367 216.423,203.182 210.599,205.667 207.666 C 206.171 207.070,206.625 206.546,206.676 206.500 C 206.813 206.377,208.786 203.855,209.783 202.530 C 211.402 200.376,211.902 198.500,211.349 196.654 C 211.109 195.851,209.698 194.552,208.905 194.403 L 208.333 194.296 208.333 193.338 C 208.333 191.782,208.040 190.662,207.307 189.417 C 205.796 186.850,205.821 186.913,205.656 185.301 C 205.408 182.888,204.979 181.808,203.812 180.659 L 202.833 179.695 203.669 178.722 C 206.367 175.587,205.967 171.501,202.887 170.728 C 202.674 170.674,202.497 170.620,202.494 170.607 C 202.491 170.594,202.419 169.871,202.334 169.000 C 201.994 165.511,201.310 161.842,200.019 156.583 C 198.902 152.035,196.737 144.919,195.912 143.083 C 195.789 142.808,195.310 141.629,194.849 140.463 C 193.388 136.768,191.621 133.161,189.223 128.978 L 188.493 127.705 187.261 127.590 C 184.090 127.293,180.993 128.508,178.311 131.102 C 176.372 132.978,174.894 132.827,175.924 130.859 C 177.582 127.691,181.658 125.332,185.519 125.307 C 186.802 125.299,186.823 125.292,186.638 124.941 C 186.185 124.080,183.104 120.011,181.824 118.583 C 179.968 116.512,179.257 115.777,176.828 113.412 C 171.722 108.441,170.823 107.838,169.583 108.556 M187.835 134.375 C 190.516 136.200,188.579 140.236,185.573 139.088 C 182.868 138.055,183.607 134.000,186.500 134.000 C 187.039 134.000,187.456 134.117,187.835 134.375 M161.239 138.329 C 162.586 138.841,161.408 140.023,159.251 140.323 C 155.578 140.834,152.974 142.482,150.925 145.592 C 150.313 146.522,149.868 147.027,149.602 147.094 C 146.310 147.920,150.274 141.234,154.195 139.347 C 156.363 138.303,159.847 137.800,161.239 138.329 M164.083 147.211 C 166.516 148.569,165.380 152.359,162.613 152.117 C 160.289 151.914,159.325 149.140,161.026 147.552 C 161.872 146.761,163.044 146.631,164.083 147.211 M177.921 324.315 L 177.258 324.417 176.458 327.417 C 173.327 339.161,169.413 346.635,164.167 350.888 L 163.417 351.497 164.167 351.400 C 164.579 351.346,166.462 351.386,168.350 351.487 C 171.775 351.671,172.537 351.780,179.384 353.074 C 181.108 353.400,182.650 353.667,182.810 353.667 C 183.053 353.667,183.150 353.363,183.385 351.875 C 184.693 343.576,183.993 335.317,181.311 327.417 C 180.447 324.872,180.425 324.833,179.833 324.833 C 179.516 324.833,179.283 324.717,179.167 324.500 C 179.069 324.317,178.897 324.177,178.786 324.190 C 178.674 324.203,178.285 324.260,177.921 324.315 M116.232 333.347 C 110.601 334.885,109.173 335.852,109.168 338.130 C 109.164 339.611,111.104 340.966,112.385 340.378 C 114.893 339.226,119.087 337.878,121.367 337.491 L 122.484 337.302 120.715 334.984 C 119.742 333.710,118.864 332.675,118.764 332.686 C 118.665 332.696,117.525 332.994,116.232 333.347 M122.000 338.618 C 118.270 339.264,112.251 340.983,111.203 341.701 C 108.180 343.772,109.685 347.921,113.036 346.754 C 114.008 346.415,114.000 346.412,114.000 347.175 C 114.000 349.484,115.859 350.010,119.221 348.651 C 122.019 347.521,124.157 346.944,128.034 346.274 L 130.151 345.908 128.069 343.662 C 126.924 342.427,125.446 340.765,124.785 339.969 C 123.507 338.428,123.398 338.375,122.000 338.618 M129.535 347.260 C 125.491 348.455,121.093 350.837,120.556 352.123 C 119.674 354.233,121.003 354.573,126.033 353.522 C 127.802 353.153,130.896 352.507,132.908 352.087 C 134.920 351.667,136.591 351.298,136.621 351.268 C 136.651 351.237,136.055 350.760,135.296 350.207 C 134.538 349.655,133.302 348.669,132.552 348.018 C 131.801 347.366,131.126 346.837,131.052 346.842 C 130.977 346.847,130.295 347.035,129.535 347.260 " stroke="none" fill="#f3948b" fill-rule="evenodd"></path><path id="path4" d="M126.461 167.121 C 126.761 167.158,127.211 167.157,127.461 167.119 C 127.712 167.081,127.467 167.051,126.917 167.052 C 126.367 167.053,126.162 167.084,126.461 167.121 M153.278 240.042 C 153.121 240.157,152.957 240.513,152.913 240.834 C 152.870 241.154,152.605 243.104,152.325 245.167 C 151.285 252.832,150.228 259.401,146.505 281.333 C 145.953 284.587,145.192 289.087,144.814 291.333 C 144.437 293.579,144.099 295.448,144.064 295.486 C 143.965 295.593,143.966 295.596,142.704 292.475 C 137.059 278.510,130.019 265.213,121.453 252.333 C 118.877 248.461,118.909 248.500,118.304 248.500 C 117.048 248.500,117.223 248.955,120.204 253.446 C 129.362 267.242,136.861 281.694,142.565 296.537 L 143.507 298.991 141.988 307.954 C 139.445 322.953,139.579 321.685,140.531 321.800 C 141.195 321.880,141.366 321.469,141.849 318.614 C 142.101 317.130,142.916 312.325,143.660 307.935 C 144.404 303.545,145.091 299.807,145.186 299.630 C 145.281 299.453,145.321 299.209,145.275 299.088 C 145.229 298.968,145.413 297.567,145.684 295.976 C 145.955 294.385,146.509 291.133,146.915 288.750 C 147.622 284.595,148.699 278.234,150.484 267.667 C 152.570 255.308,154.496 242.438,154.499 240.825 C 154.501 239.919,153.939 239.559,153.278 240.042 M180.330 249.670 C 179.758 250.242,179.840 250.421,181.167 251.500 C 183.971 253.779,184.303 254.146,184.151 254.807 C 183.653 256.975,182.964 263.215,182.253 272.000 C 180.574 292.755,179.753 300.607,178.237 310.417 C 174.065 337.408,167.046 350.813,155.541 353.761 C 142.084 357.209,126.578 344.469,110.803 317.002 C 110.041 315.674,109.342 314.624,109.250 314.669 C 109.158 314.714,109.096 314.788,109.111 314.834 C 109.127 314.880,109.220 315.640,109.318 316.522 L 109.497 318.127 111.346 321.189 C 121.340 337.734,132.500 349.876,141.250 353.723 C 154.674 359.625,166.542 353.662,173.062 337.737 C 177.997 325.682,180.844 309.375,183.328 278.917 C 184.528 264.210,184.967 259.797,185.589 256.198 C 186.067 253.432,186.120 253.625,184.474 252.161 C 181.406 249.431,180.884 249.116,180.330 249.670 M220.666 257.584 C 220.497 257.787,220.622 258.853,221.326 263.209 C 223.914 279.231,225.876 292.924,227.745 308.000 C 228.250 312.079,228.707 315.736,228.759 316.126 C 228.876 316.996,229.204 316.883,225.000 317.419 C 223.121 317.659,219.896 318.073,217.833 318.339 C 211.587 319.144,207.810 319.629,202.917 320.252 C 194.551 321.317,180.430 323.156,179.877 323.253 C 178.829 323.437,178.862 324.833,179.914 324.833 C 180.229 324.833,203.981 321.806,215.833 320.255 C 216.887 320.117,218.950 319.849,220.417 319.661 C 221.883 319.472,224.171 319.175,225.500 319.001 C 226.829 318.827,229.417 318.490,231.250 318.253 C 235.513 317.702,235.489 317.707,235.694 317.255 C 236.186 316.177,235.514 316.004,232.487 316.426 C 231.465 316.568,230.594 316.650,230.551 316.606 C 230.507 316.563,229.995 312.715,229.412 308.055 C 227.397 291.942,225.865 281.191,223.314 265.256 C 222.668 261.226,222.069 257.795,221.981 257.631 C 221.784 257.264,220.956 257.234,220.666 257.584 M101.003 262.983 C 100.385 263.066,100.229 263.161,100.099 263.532 C 99.799 264.390,100.096 264.500,102.729 264.502 C 107.745 264.507,113.308 264.981,118.476 265.844 C 121.658 266.375,122.000 266.343,122.000 265.515 C 122.000 264.800,121.825 264.733,118.499 264.183 C 112.473 263.187,103.884 262.598,101.003 262.983 M182.776 353.914 C 181.825 354.866,182.462 355.262,185.770 355.774 C 187.783 356.086,189.094 356.392,190.376 356.850 C 199.743 360.198,212.132 362.571,226.333 363.739 C 228.029 363.879,229.854 364.036,230.389 364.090 L 231.362 364.186 231.258 363.052 C 231.066 360.967,231.016 360.263,230.912 358.250 C 230.774 355.572,230.800 355.639,229.947 355.789 C 228.433 356.056,207.806 355.926,203.083 355.620 C 195.850 355.151,185.338 354.139,183.485 353.733 C 183.202 353.671,182.957 353.734,182.776 353.914 " stroke="none" fill="#a4a454" fill-rule="evenodd"></path></g></svg>