<svg id="svg" version="1.1" xmlns="http://www.w3.org/2000/svg" xmlns:xlink="http://www.w3.org/1999/xlink" width="400" height="558.129007921539" viewBox="0, 0, 400,558.129007921539"><g id="svgg"><path id="path0" d="M61.202 47.328 C 60.643 48.039,60.386 51.339,60.485 56.512 C 60.521 58.366,60.464 60.587,60.360 61.446 C 59.902 65.217,62.445 66.928,63.741 63.721 C 63.999 63.081,64.058 61.685,64.013 57.209 C 63.978 53.630,64.052 51.152,64.212 50.543 C 64.871 48.047,62.570 45.589,61.202 47.328 M169.767 59.883 C 163.654 60.628,160.421 62.722,157.562 67.791 C 155.316 71.773,154.797 74.691,154.771 83.488 C 154.743 93.069,154.223 95.798,151.226 102.093 C 150.526 103.564,149.790 105.186,149.591 105.698 C 149.391 106.209,148.113 108.302,146.751 110.349 C 142.129 117.293,141.664 118.944,142.004 127.209 C 142.470 138.560,142.230 140.609,140.222 142.424 C 137.075 145.267,134.039 141.958,132.782 134.313 C 131.498 126.505,125.874 123.808,120.555 128.449 C 116.133 132.308,117.150 144.417,122.327 149.535 C 122.392 149.599,122.717 150.017,123.051 150.465 C 125.218 153.373,129.590 156.840,133.140 158.465 C 136.152 159.844,137.777 160.831,139.055 162.058 C 139.559 162.542,141.800 165.617,142.132 166.279 C 142.565 167.145,144.464 170.331,144.626 170.465 C 144.704 170.529,145.157 171.160,145.632 171.867 C 146.108 172.574,146.686 173.359,146.917 173.611 C 147.147 173.863,148.359 175.378,149.609 176.977 C 150.859 178.576,152.007 180.043,152.162 180.237 C 152.316 180.432,153.044 181.397,153.780 182.382 C 155.668 184.910,159.354 188.786,161.279 190.268 C 161.663 190.564,162.010 190.880,162.050 190.971 C 162.090 191.062,162.927 191.744,163.910 192.487 C 164.893 193.230,165.750 193.895,165.814 193.965 C 165.878 194.035,166.297 194.346,166.744 194.656 C 167.192 194.966,167.761 195.406,168.009 195.633 C 168.257 195.861,168.537 196.047,168.632 196.047 C 168.727 196.047,168.943 196.185,169.113 196.355 C 169.657 196.899,173.987 199.793,176.628 201.377 C 178.933 202.760,179.189 202.980,179.218 203.607 C 179.257 204.439,179.590 206.788,180.075 209.651 C 180.774 213.779,180.933 216.761,180.926 225.608 L 180.918 234.587 179.148 235.840 C 173.461 239.866,168.336 249.247,163.536 264.419 C 155.736 289.069,156.685 335.780,165.721 371.977 C 167.149 377.699,168.998 384.014,172.666 395.698 C 177.387 410.734,177.461 410.982,178.922 416.512 C 180.838 423.759,182.239 430.395,183.023 435.930 C 183.167 436.953,183.383 438.471,183.501 439.302 C 185.414 452.767,186.668 475.696,187.469 511.860 C 187.785 526.143,187.447 550.976,186.867 555.988 L 186.753 556.977 218.144 556.977 L 249.535 556.977 249.534 545.291 C 249.534 533.242,249.324 526.670,248.709 519.419 C 247.575 506.066,247.463 502.790,247.316 478.726 C 247.183 457.020,247.190 456.863,248.946 443.023 C 249.263 440.529,249.683 436.186,249.880 433.372 C 250.590 423.225,251.126 419.185,253.014 409.767 C 253.962 405.038,254.241 403.174,255.241 394.884 C 255.970 388.841,256.543 385.976,258.244 379.884 C 261.303 368.928,263.426 359.915,264.516 353.256 C 264.715 352.041,265.294 348.483,265.802 345.349 C 266.310 342.215,267.049 337.977,267.444 335.930 C 271.123 316.870,271.445 302.235,268.609 283.023 C 268.240 280.529,267.816 277.547,267.665 276.395 C 265.766 261.880,261.504 251.262,254.354 243.231 C 251.506 240.032,250.005 238.857,245.698 236.451 C 241.335 234.015,240.915 233.390,240.590 228.837 C 240.558 228.390,240.400 226.401,240.239 224.419 C 240.009 221.598,240.003 219.650,240.210 215.465 C 240.356 212.523,240.527 208.860,240.590 207.326 C 240.754 203.311,240.867 202.654,241.465 202.255 C 244.829 200.011,256.200 188.276,260.887 182.209 C 263.581 178.723,268.649 169.720,270.968 164.300 C 271.340 163.431,271.776 162.801,272.120 162.634 C 278.617 159.487,281.119 158.208,281.395 157.890 C 281.459 157.816,282.177 157.307,282.991 156.759 C 286.959 154.084,290.801 149.299,292.804 144.535 C 296.775 135.093,291.862 124.581,284.375 126.500 C 280.847 127.404,280.537 127.940,280.383 133.372 C 280.209 139.509,278.833 142.521,276.568 141.725 C 274.829 141.113,274.191 138.517,274.060 131.515 C 273.849 120.265,272.524 114.446,268.868 108.721 C 266.939 105.700,265.435 102.000,264.521 98.023 C 263.631 94.152,263.466 92.315,263.257 83.953 C 263.007 73.957,262.716 72.194,260.689 68.391 C 257.609 62.613,252.221 60.206,241.279 59.721 C 229.939 59.218,222.578 60.212,214.799 63.294 C 208.934 65.619,203.866 65.613,194.905 63.273 C 193.039 62.785,189.632 61.896,187.334 61.297 C 180.573 59.533,175.793 59.149,169.767 59.883 M95.953 61.795 C 95.710 61.857,95.291 62.118,95.023 62.374 C 94.754 62.631,94.116 63.108,93.605 63.435 C 92.269 64.288,90.999 65.297,89.585 66.628 C 88.906 67.267,87.571 68.266,86.619 68.848 C 83.553 70.720,82.394 72.534,83.535 73.674 C 84.455 74.594,87.968 73.025,90.698 70.474 C 91.273 69.936,92.110 69.252,92.558 68.954 C 93.006 68.656,93.791 68.033,94.302 67.569 C 94.814 67.106,95.703 66.451,96.279 66.114 C 99.346 64.315,99.095 60.991,95.953 61.795 M20.573 63.239 C 18.446 64.126,19.448 66.587,22.674 68.400 C 25.577 70.031,30.992 73.413,31.588 73.966 C 34.363 76.548,38.231 76.736,37.831 74.271 C 37.647 73.141,36.832 72.332,34.302 70.768 C 31.693 69.155,30.413 68.312,26.745 65.792 C 22.889 63.141,21.845 62.709,20.573 63.239 M57.442 69.426 C 54.289 69.901,51.486 70.891,49.211 72.334 C 48.613 72.713,48.072 73.023,48.009 73.023 C 47.573 73.023,43.327 77.264,42.375 78.651 C 36.807 86.765,36.390 96.770,41.229 106.163 C 41.756 107.186,42.248 108.076,42.323 108.140 C 42.397 108.203,42.947 108.949,43.545 109.796 C 44.686 111.413,45.496 112.298,47.240 113.837 C 48.829 115.240,49.229 115.543,50.982 116.677 C 52.877 117.904,54.852 119.783,55.450 120.930 C 56.951 123.810,57.011 123.985,56.758 124.713 C 56.622 125.101,56.512 125.440,56.512 125.468 C 56.512 125.495,56.771 125.467,57.089 125.407 C 57.412 125.345,58.344 125.567,59.206 125.913 C 61.266 126.737,62.876 127.273,65.898 128.141 C 67.287 128.540,69.001 129.121,69.706 129.433 C 70.411 129.745,71.080 130.000,71.192 130.000 C 71.627 130.000,71.423 125.280,70.954 124.511 C 69.909 122.797,73.033 118.122,77.989 113.982 C 83.870 109.070,86.750 102.629,86.771 94.345 C 86.780 90.811,86.646 89.894,85.640 86.565 C 82.983 77.775,74.861 70.764,66.047 69.651 C 60.911 69.003,60.348 68.988,57.442 69.426 M64.101 87.500 C 65.173 88.716,65.499 92.154,64.770 94.556 C 64.321 96.037,64.301 95.928,65.174 96.775 C 66.868 98.416,70.187 99.509,70.622 98.569 C 72.428 94.664,76.759 94.165,76.815 97.855 C 76.846 99.939,75.696 100.918,72.991 101.111 L 71.443 101.222 71.066 102.181 C 70.544 103.506,69.615 107.622,69.300 110.000 C 68.741 114.217,68.524 115.553,67.994 118.023 C 67.692 119.430,67.304 121.533,67.131 122.696 C 66.770 125.129,66.673 125.349,65.963 125.349 C 64.688 125.349,64.567 123.853,65.487 119.489 C 66.285 115.709,66.475 114.658,66.761 112.442 C 67.139 109.523,68.095 104.942,68.745 102.944 C 69.071 101.941,69.304 101.092,69.262 101.057 C 69.220 101.022,68.469 100.758,67.594 100.470 C 66.612 100.148,65.420 99.508,64.489 98.802 L 62.977 97.658 61.703 98.746 C 60.562 99.721,58.267 100.910,57.500 100.925 C 57.125 100.932,57.134 101.019,57.677 102.644 C 58.284 104.458,59.213 108.905,59.768 112.658 C 60.016 114.330,60.316 116.169,60.436 116.744 C 62.102 124.768,62.130 125.349,60.847 125.349 C 60.022 125.349,59.791 124.918,59.394 122.642 C 59.197 121.509,58.877 119.901,58.683 119.070 C 58.186 116.931,57.446 112.290,57.090 109.070 C 56.903 107.378,56.146 104.159,55.552 102.530 L 55.076 101.222 53.524 101.111 C 50.853 100.920,49.678 99.942,49.678 97.907 C 49.678 94.290,53.188 94.360,55.502 98.022 C 55.865 98.598,56.342 99.069,56.561 99.069 C 57.472 99.070,59.499 98.057,60.642 97.030 L 61.866 95.930 61.244 94.419 C 60.057 91.533,60.324 88.089,61.801 87.229 C 62.520 86.810,63.606 86.938,64.101 87.500 M62.591 89.608 C 62.186 90.607,62.601 93.697,63.045 92.995 C 63.289 92.611,63.281 90.351,63.033 89.535 L 62.856 88.953 62.591 89.608 M26.279 93.036 C 25.192 93.132,22.157 93.225,19.535 93.244 C 13.584 93.287,12.171 93.840,12.693 95.921 C 13.074 97.440,14.395 97.776,18.751 97.460 C 20.653 97.322,24.347 97.147,26.959 97.072 C 31.874 96.930,32.548 96.817,33.430 95.990 C 34.391 95.091,33.957 93.855,32.399 93.052 C 31.848 92.768,29.405 92.762,26.279 93.036 M91.580 93.296 C 90.530 93.900,90.232 94.842,90.811 95.727 C 91.491 96.763,92.349 96.937,97.457 97.074 C 100.071 97.144,103.717 97.318,105.560 97.460 C 110.379 97.831,111.628 97.425,111.628 95.485 C 111.628 93.534,110.873 93.321,103.372 93.155 C 100.047 93.082,96.227 92.972,94.884 92.911 C 92.698 92.812,92.352 92.852,91.580 93.296 M182.641 93.391 C 187.786 94.715,191.269 98.533,189.280 100.668 C 188.104 101.931,186.880 101.917,182.882 100.594 L 179.756 99.560 177.145 99.773 C 175.245 99.928,173.839 100.208,171.977 100.803 C 168.202 102.008,166.504 101.707,166.515 99.837 C 166.540 95.740,176.421 91.790,182.641 93.391 M242.641 93.392 C 246.842 94.476,250.189 97.500,249.629 99.706 C 249.096 101.807,246.911 102.056,242.429 100.530 L 239.625 99.575 237.080 99.780 C 235.241 99.928,233.825 100.212,231.977 100.802 C 227.710 102.165,225.565 101.443,226.508 98.962 C 228.013 95.005,236.943 91.922,242.641 93.392 M51.628 97.899 C 51.628 98.698,52.244 99.137,53.209 99.026 L 53.837 98.953 52.988 98.081 C 51.964 97.029,51.628 96.984,51.628 97.899 M73.613 97.931 C 72.636 98.788,72.581 99.070,73.387 99.070 C 74.364 99.070,74.884 98.663,74.884 97.899 C 74.884 97.025,74.637 97.031,73.613 97.931 M215.117 113.555 C 215.117 113.710,215.001 115.198,214.858 116.860 C 214.451 121.607,214.970 125.682,216.539 130.052 C 219.319 137.797,219.385 138.039,219.402 140.698 C 219.426 144.271,218.365 145.781,215.061 146.879 C 212.727 147.654,208.762 146.500,206.557 144.404 C 204.737 142.674,206.194 142.025,208.442 143.565 C 211.279 145.507,213.744 145.828,215.940 144.542 C 218.518 143.031,218.470 141.280,215.623 132.894 C 213.242 125.883,213.014 124.681,213.045 119.302 C 213.068 115.212,213.282 113.517,213.827 113.118 C 214.296 112.775,215.116 113.052,215.117 113.555 M39.884 114.578 C 39.085 115.004,38.603 115.460,37.220 117.093 C 36.679 117.733,34.488 120.035,32.352 122.209 C 27.825 126.818,27.390 127.379,27.357 128.648 C 27.280 131.589,30.463 131.135,33.023 127.841 C 33.727 126.935,35.610 124.844,37.209 123.193 C 41.860 118.392,42.359 117.832,42.700 117.042 C 43.652 114.838,42.038 113.426,39.884 114.578 M81.831 114.571 C 80.749 115.874,81.502 117.284,85.476 121.395 C 86.898 122.866,88.575 124.645,89.205 125.349 C 89.834 126.052,90.405 126.680,90.473 126.744 C 90.541 126.808,91.012 127.384,91.519 128.023 C 93.649 130.711,95.750 131.378,96.842 129.712 C 97.706 128.393,97.023 127.285,92.469 122.614 C 90.381 120.473,87.965 117.936,87.099 116.977 C 84.743 114.365,82.755 113.457,81.831 114.571 M180.213 117.356 C 182.203 117.754,184.654 121.289,184.649 123.754 C 184.637 129.410,180.073 132.495,175.225 130.123 C 168.241 126.706,172.496 115.813,180.213 117.356 M239.929 117.696 C 243.674 119.509,244.652 125.179,241.880 129.006 C 239.379 132.458,232.390 130.925,230.910 126.600 C 229.098 121.306,235.115 115.366,239.929 117.696 M56.744 128.376 C 56.744 129.334,56.835 129.768,57.035 129.768 C 57.195 129.768,58.791 130.243,60.581 130.825 C 62.372 131.406,64.969 132.192,66.351 132.571 C 67.734 132.951,69.238 133.417,69.694 133.607 C 70.936 134.127,71.104 134.059,71.205 132.997 C 71.273 132.282,71.206 132.013,70.939 131.933 C 70.742 131.874,70.006 131.574,69.302 131.266 C 68.599 130.958,67.291 130.491,66.395 130.228 C 63.671 129.426,59.019 127.904,57.849 127.431 L 56.744 126.985 56.744 128.376 M56.836 131.996 C 56.913 132.198,56.977 132.709,56.977 133.132 C 56.977 133.785,57.073 133.920,57.616 134.026 C 58.235 134.148,64.996 136.791,68.200 138.164 C 69.064 138.534,69.810 138.837,69.858 138.837 C 70.005 138.837,70.424 137.596,70.564 136.741 L 70.698 135.925 68.779 135.288 C 67.724 134.937,66.076 134.431,65.116 134.163 C 64.157 133.895,61.959 133.215,60.233 132.652 C 56.695 131.499,56.641 131.488,56.836 131.996 M127.131 134.672 C 130.413 136.252,132.101 140.098,131.044 143.583 C 130.338 145.911,130.683 146.874,132.735 148.315 C 134.688 149.684,135.860 151.038,135.770 151.818 C 135.655 152.809,134.644 152.800,133.962 151.804 C 133.668 151.376,132.715 150.521,131.844 149.905 C 128.990 147.887,128.424 146.409,129.272 143.191 L 129.748 141.382 129.287 139.888 C 128.346 136.843,125.078 134.827,123.625 136.395 C 122.630 137.469,121.532 136.953,122.000 135.631 C 122.542 134.095,124.984 133.639,127.131 134.672 M289.997 134.999 C 291.280 135.662,291.799 136.977,290.955 137.428 C 290.605 137.616,290.335 137.520,289.624 136.955 C 288.519 136.077,287.667 136.164,285.879 137.338 C 283.654 138.799,282.931 141.098,283.711 144.238 C 284.523 147.508,283.952 148.878,280.917 150.939 C 280.187 151.435,279.229 152.276,278.786 152.808 C 277.414 154.460,276.218 153.346,277.473 151.584 C 277.746 151.201,278.714 150.335,279.624 149.660 C 282.335 147.649,282.718 146.860,282.024 144.717 C 280.753 140.791,282.347 136.865,285.881 135.220 C 287.281 134.568,288.987 134.476,289.997 134.999 M57.212 136.570 C 57.228 140.985,64.117 144.006,67.849 141.235 C 69.041 140.350,69.155 140.423,63.023 138.137 C 61.936 137.732,60.230 137.043,59.233 136.607 C 57.041 135.648,57.209 135.651,57.212 136.570 M77.558 155.497 C 75.241 156.037,72.808 158.622,71.899 161.512 C 70.758 165.137,70.658 167.737,70.602 195.233 C 70.562 214.992,70.596 214.330,69.376 219.535 C 68.658 222.599,67.133 227.123,65.809 230.116 C 65.582 230.628,65.241 231.413,65.049 231.860 C 64.858 232.308,64.428 233.279,64.095 234.019 C 63.761 234.758,63.488 235.422,63.488 235.495 C 63.488 235.568,63.331 235.983,63.140 236.418 C 62.948 236.853,62.634 237.565,62.442 238.000 C 61.235 240.736,59.060 246.832,58.617 248.721 C 58.467 249.360,58.249 250.253,58.132 250.704 C 56.972 255.177,57.502 265.757,59.277 273.605 C 59.393 274.116,59.614 275.110,59.767 275.814 C 59.921 276.517,60.131 277.459,60.234 277.907 C 60.336 278.355,60.704 280.081,61.051 281.744 C 61.653 284.626,61.769 285.253,62.306 288.488 C 62.793 291.427,62.860 291.751,63.025 291.977 C 63.118 292.105,63.326 292.768,63.486 293.450 C 63.646 294.133,64.036 295.389,64.352 296.241 C 65.570 299.524,66.227 301.596,66.753 303.819 C 67.451 306.765,68.644 308.649,71.801 311.789 C 83.540 323.467,98.443 323.916,105.556 312.805 C 107.659 309.520,109.968 304.127,109.509 303.573 C 109.115 303.099,109.374 302.235,110.000 301.936 C 110.430 301.731,110.755 301.184,111.246 299.841 C 111.979 297.837,114.721 292.092,116.331 289.186 C 121.986 278.979,123.801 274.169,124.928 266.395 C 125.333 263.603,125.334 251.127,124.929 247.093 C 124.519 243.000,124.898 240.269,127.062 231.744 C 127.924 228.349,128.096 227.494,128.255 225.808 C 129.085 217.002,120.695 212.254,114.459 218.002 C 111.955 220.310,108.858 226.738,110.086 227.077 C 113.487 228.015,116.327 241.567,114.523 248.256 C 113.339 252.649,110.077 256.268,107.294 256.277 C 106.608 256.279,106.555 256.342,106.407 257.328 C 105.947 260.399,104.361 263.545,102.073 265.930 C 98.638 269.509,95.465 274.667,94.157 278.799 C 93.512 280.834,92.474 281.561,91.995 280.313 C 91.670 279.466,94.246 273.350,96.038 270.710 L 97.018 269.268 95.893 269.459 C 94.141 269.758,92.623 269.619,91.702 269.076 C 91.245 268.806,90.850 268.616,90.823 268.653 C 90.796 268.691,90.600 269.453,90.387 270.349 C 87.856 281.010,76.228 282.097,76.440 271.652 C 76.496 268.887,76.204 268.266,73.844 266.146 C 72.034 264.519,71.749 263.921,72.574 263.480 C 73.169 263.161,73.599 263.420,75.636 265.326 C 77.793 267.344,78.232 268.369,78.245 271.413 C 78.275 278.422,84.396 279.312,87.589 272.772 C 91.566 264.626,87.823 255.424,78.663 250.827 C 77.248 250.117,76.977 249.888,76.977 249.402 C 76.977 247.057,82.373 250.189,86.906 255.164 C 89.630 258.154,90.918 261.273,90.927 264.901 L 90.930 266.429 91.919 267.079 C 95.829 269.652,102.391 265.154,104.281 258.605 C 105.728 253.587,104.997 249.037,102.037 244.651 C 95.265 234.616,90.868 232.293,81.541 233.820 C 79.120 234.217,78.605 234.118,78.605 233.256 C 78.605 232.269,81.164 231.757,86.047 231.767 C 93.487 231.781,96.895 234.024,103.085 242.981 C 105.701 246.767,106.744 249.739,106.744 253.403 C 106.744 255.696,110.167 253.741,111.726 250.556 C 114.471 244.951,113.503 234.108,109.829 229.302 C 109.187 228.462,109.053 228.109,109.150 227.510 C 109.264 226.799,107.952 224.682,106.513 223.256 C 106.319 223.064,105.746 222.384,105.240 221.744 C 104.117 220.326,101.020 217.240,99.827 216.351 C 99.346 215.993,98.901 215.640,98.837 215.567 C 98.261 214.908,95.899 213.609,93.372 212.561 C 90.716 211.459,86.987 211.099,86.625 211.909 C 86.439 212.326,86.022 212.498,84.419 212.819 C 81.533 213.396,79.437 214.223,77.442 215.570 C 76.007 216.539,74.776 216.263,75.238 215.075 C 75.857 213.483,84.825 210.152,86.328 210.956 C 86.725 211.169,86.747 210.679,86.802 200.531 C 86.984 167.332,86.681 163.260,83.707 158.837 C 82.146 156.515,79.458 155.055,77.558 155.497 " stroke="none" fill="#f6d5c2" fill-rule="evenodd"></path><path id="path1" d="M56.570 125.503 C 54.718 126.250,57.819 127.736,66.512 130.268 C 67.471 130.547,68.727 131.005,69.302 131.285 C 70.813 132.020,71.523 132.151,71.852 131.755 C 72.207 131.327,72.079 130.450,71.628 130.214 C 70.693 129.725,67.591 128.596,65.930 128.141 C 63.595 127.501,60.419 126.442,58.974 125.823 C 57.898 125.361,57.163 125.264,56.570 125.503 M56.170 129.910 C 55.591 130.489,55.938 131.626,56.694 131.630 C 56.914 131.631,58.715 132.159,60.698 132.804 C 62.680 133.449,65.058 134.175,65.982 134.417 C 66.906 134.659,68.409 135.127,69.324 135.457 C 70.600 135.917,71.061 135.995,71.307 135.791 C 71.707 135.458,71.730 134.199,71.337 134.092 C 71.177 134.048,70.209 133.742,69.186 133.411 C 68.163 133.081,66.855 132.694,66.279 132.553 C 65.429 132.344,62.949 131.582,56.809 129.644 C 56.653 129.595,56.365 129.715,56.170 129.910 M56.451 134.342 C 56.089 135.138,56.396 135.530,57.791 136.052 C 58.430 136.291,60.314 137.026,61.977 137.685 C 63.640 138.345,65.806 139.197,66.790 139.580 C 67.775 139.962,68.620 140.396,68.670 140.544 C 68.867 141.134,70.112 140.393,70.178 139.647 C 70.247 138.865,71.059 139.266,62.442 135.833 C 56.942 133.641,56.788 133.603,56.451 134.342 M178.711 229.658 C 177.810 229.961,176.083 230.722,174.873 231.350 C 173.664 231.979,172.413 232.574,172.093 232.673 C 171.773 232.773,170.855 233.154,170.052 233.520 C 169.250 233.886,168.542 234.186,168.480 234.186 C 168.418 234.186,167.923 234.382,167.381 234.622 C 166.839 234.861,165.401 235.450,164.186 235.930 C 162.971 236.410,161.653 236.944,161.256 237.116 C 160.860 237.289,159.604 237.788,158.466 238.227 C 156.586 238.950,155.718 239.324,152.280 240.896 C 151.680 241.171,151.136 241.395,151.073 241.395 C 151.010 241.395,149.879 241.906,148.560 242.530 C 147.242 243.154,145.640 243.896,145.000 244.178 C 142.791 245.152,139.352 247.105,138.837 247.677 C 137.933 248.683,133.451 251.205,128.721 253.370 C 127.698 253.839,126.535 254.375,126.138 254.563 L 125.416 254.905 125.280 259.952 C 124.977 271.166,123.325 276.563,116.331 289.186 C 114.705 292.121,111.975 297.849,111.246 299.853 C 110.808 301.059,110.423 301.747,110.116 301.873 C 109.681 302.051,109.685 302.064,110.192 302.078 C 110.943 302.099,111.942 303.171,112.373 304.419 C 115.579 313.700,115.377 318.148,111.163 331.047 C 107.854 341.176,107.398 346.359,108.936 356.395 C 111.003 369.883,110.785 372.757,106.977 382.326 C 104.588 388.327,104.008 390.630,102.789 398.967 C 100.338 415.726,98.990 422.937,90.097 466.860 C 89.138 471.593,87.682 479.023,86.860 483.372 C 84.604 495.313,84.378 496.086,83.329 495.437 C 82.718 495.059,82.790 494.367,84.156 487.558 C 84.823 484.233,86.458 476.017,87.789 469.302 C 89.121 462.587,91.056 452.959,92.089 447.907 C 96.296 427.336,99.025 412.281,100.923 399.177 C 102.185 390.464,102.735 388.224,105.116 382.101 C 108.749 372.758,109.089 369.587,107.558 359.302 C 105.472 345.292,105.719 341.800,109.651 329.767 C 112.756 320.263,113.271 317.032,112.467 312.093 C 111.942 308.865,110.697 304.670,110.060 303.981 C 109.751 303.646,109.554 303.485,109.622 303.624 C 109.761 303.905,108.243 307.954,107.295 309.833 C 102.381 319.561,94.197 322.989,83.953 319.607 C 76.135 317.026,68.145 309.691,66.753 303.819 C 66.227 301.596,65.570 299.524,64.352 296.241 C 64.036 295.389,63.646 294.133,63.486 293.450 C 63.099 291.803,63.094 291.798,62.371 292.300 C 62.026 292.539,61.012 293.132,60.116 293.618 C 55.146 296.317,51.914 301.895,50.702 309.869 C 50.584 310.644,50.319 312.378,50.114 313.721 C 48.697 322.999,47.763 325.120,41.510 333.256 C 38.334 337.388,37.772 338.220,36.554 340.581 C 34.075 345.389,32.560 350.561,31.957 356.279 C 31.838 357.403,31.549 359.608,31.141 362.500 C 29.762 372.282,26.410 382.856,20.468 396.163 C 20.240 396.674,19.843 397.564,19.585 398.140 C 19.136 399.146,18.848 399.834,17.054 404.186 C 16.606 405.273,16.152 406.372,16.046 406.628 C 15.939 406.884,15.748 407.407,15.621 407.791 C 15.494 408.174,15.059 409.378,14.655 410.465 C 13.835 412.670,10.766 421.867,9.416 426.163 C 8.934 427.698,8.392 429.418,8.211 429.986 C 8.030 430.554,7.616 432.019,7.290 433.242 C 6.964 434.465,6.612 435.779,6.508 436.163 C 5.754 438.929,4.617 443.535,4.183 445.581 C 3.898 446.924,3.583 448.390,3.483 448.837 C 3.113 450.506,2.757 452.246,2.545 453.430 C 2.424 454.102,2.217 455.253,2.085 455.988 C 1.827 457.424,1.284 461.442,0.913 464.651 C -0.182 474.141,-0.267 485.507,0.706 492.326 C 0.825 493.157,1.093 495.041,1.301 496.512 C 1.785 499.920,3.305 506.241,4.182 508.488 C 4.282 508.744,4.654 509.738,5.008 510.698 C 9.664 523.293,17.639 530.370,30.581 533.392 C 34.489 534.304,42.264 534.307,46.395 533.398 C 46.651 533.341,47.488 533.168,48.256 533.013 C 62.130 530.210,72.590 522.389,78.412 510.465 C 79.255 508.738,80.016 507.064,80.104 506.744 C 80.191 506.424,80.350 505.953,80.457 505.698 C 81.165 504.012,82.275 500.566,83.191 497.209 C 83.387 496.493,83.433 496.675,83.574 498.721 C 83.662 500.000,83.833 502.459,83.953 504.186 C 84.687 514.748,85.123 529.797,85.119 544.477 L 85.116 556.977 135.920 556.977 L 186.723 556.977 186.845 556.221 C 187.416 552.675,187.788 526.264,187.469 511.860 C 186.514 468.744,185.109 447.197,182.191 430.930 C 181.402 426.529,180.389 422.062,178.922 416.512 C 177.461 410.982,177.387 410.734,172.666 395.698 C 161.747 360.915,158.371 340.208,158.374 308.023 C 158.375 282.470,160.804 269.110,168.879 250.233 C 171.852 243.282,175.137 238.680,179.154 235.836 L 180.930 234.579 180.930 231.824 C 180.930 228.692,181.098 228.855,178.711 229.658 M240.682 229.158 C 240.609 229.234,240.760 230.305,241.018 231.540 C 241.561 234.140,241.565 234.144,245.698 236.451 C 257.796 243.207,265.048 256.394,267.665 276.395 C 267.816 277.547,268.240 280.529,268.609 283.023 C 271.445 302.235,271.123 316.870,267.444 335.930 C 267.049 337.977,266.310 342.215,265.802 345.349 C 265.294 348.483,264.715 352.041,264.516 353.256 C 263.426 359.915,261.303 368.928,258.244 379.884 C 256.543 385.976,255.970 388.841,255.241 394.884 C 254.241 403.174,253.962 405.038,253.014 409.767 C 251.126 419.185,250.590 423.225,249.880 433.372 C 249.683 436.186,249.263 440.529,248.946 443.023 C 247.190 456.863,247.183 457.020,247.316 478.726 C 247.463 502.790,247.575 506.066,248.709 519.419 C 249.324 526.670,249.534 533.242,249.534 545.291 L 249.535 556.977 290.616 556.977 L 331.698 556.977 331.559 551.802 C 331.482 548.956,331.206 544.116,330.945 541.047 C 330.114 531.267,329.767 525.841,329.766 522.586 C 329.764 518.889,329.263 505.893,328.614 492.674 C 328.362 487.558,328.094 482.012,328.018 480.349 C 327.319 465.094,325.612 440.709,324.421 428.953 C 322.167 406.712,321.379 396.383,320.906 382.907 C 320.060 358.756,322.742 339.442,330.262 315.541 C 331.236 312.445,331.535 311.958,332.314 312.206 C 333.010 312.426,332.929 313.102,331.758 316.829 C 323.258 343.898,321.158 364.664,323.501 398.488 C 323.939 404.803,324.321 409.145,325.814 424.767 C 327.050 437.701,327.126 438.562,327.786 447.209 C 328.565 457.406,329.329 470.059,330.004 483.953 C 330.138 486.703,330.397 491.988,330.580 495.698 C 330.974 503.689,331.310 512.380,331.632 522.907 C 331.761 527.128,332.023 532.413,332.214 534.651 C 333.059 544.557,333.305 548.076,333.450 552.326 L 333.605 556.860 366.074 556.919 L 398.543 556.978 398.681 555.292 C 398.821 553.577,399.088 551.561,399.536 548.837 C 399.929 546.445,400.093 539.919,399.797 538.411 C 398.523 531.915,398.386 528.919,399.076 522.558 C 399.207 521.343,399.424 519.355,399.557 518.140 C 400.018 513.936,400.084 504.106,399.668 501.512 C 399.070 497.782,398.150 493.229,397.559 491.079 C 397.378 490.422,397.161 489.622,397.075 489.302 C 396.874 488.550,394.501 479.937,394.160 478.721 C 394.017 478.209,393.812 477.529,393.705 477.209 C 393.359 476.176,391.429 468.093,390.956 465.698 C 389.700 459.337,389.047 451.222,388.141 430.698 C 387.569 417.744,386.713 407.296,384.889 390.988 C 384.763 389.869,384.507 387.488,384.318 385.698 C 384.129 383.907,383.865 381.578,383.732 380.523 C 383.071 375.316,382.859 373.731,382.317 369.942 C 382.184 369.015,381.976 367.419,381.855 366.395 C 381.734 365.372,381.535 363.907,381.413 363.140 C 381.100 361.177,380.759 358.626,380.465 356.047 C 379.509 347.659,378.685 344.152,376.505 339.186 C 376.393 338.930,376.202 338.355,376.081 337.907 C 375.842 337.027,374.285 332.504,373.958 331.744 C 373.848 331.488,373.477 330.494,373.134 329.535 C 372.265 327.109,369.814 320.786,369.280 319.593 C 369.036 319.049,368.620 318.108,368.355 317.500 C 367.368 315.238,365.911 312.153,364.978 310.349 C 363.018 306.556,360.396 301.725,359.972 301.127 C 359.732 300.787,359.535 300.456,359.535 300.390 C 359.535 299.809,352.204 288.473,351.161 287.442 C 351.097 287.378,350.736 286.907,350.360 286.395 C 349.984 285.884,349.618 285.413,349.547 285.349 C 349.476 285.285,349.011 284.726,348.514 284.107 C 344.330 278.902,334.468 271.036,326.512 266.559 C 326.064 266.307,324.726 265.513,323.537 264.794 C 322.349 264.076,321.285 263.488,321.173 263.488 C 321.061 263.488,320.934 263.410,320.891 263.314 C 320.745 262.985,311.048 258.140,310.537 258.140 C 310.472 258.140,310.037 257.970,309.570 257.763 C 309.103 257.556,308.407 257.252,308.023 257.088 C 307.640 256.923,306.907 256.609,306.395 256.389 C 305.884 256.169,304.366 255.542,303.023 254.996 C 297.167 252.616,296.339 252.273,295.349 251.816 C 294.773 251.551,293.884 251.151,293.372 250.928 C 291.883 250.278,289.700 249.299,289.070 248.998 C 288.750 248.846,287.023 247.773,285.233 246.614 C 283.442 245.455,281.401 244.266,280.698 243.971 C 279.994 243.677,278.948 243.222,278.372 242.961 C 277.797 242.699,276.227 242.024,274.884 241.461 C 272.829 240.598,271.272 239.979,265.930 237.900 C 263.925 237.119,261.430 236.195,259.767 235.615 C 256.315 234.413,249.946 231.943,248.140 231.106 C 244.917 229.614,241.182 228.638,240.682 229.158 M346.138 289.364 C 346.475 289.901,345.738 291.323,342.194 296.977 C 340.711 299.343,338.875 302.513,338.114 304.022 C 336.708 306.809,336.312 307.254,335.695 306.742 C 334.759 305.965,335.739 303.908,341.285 295.000 C 342.719 292.698,344.077 290.448,344.304 290.000 C 344.939 288.747,345.605 288.515,346.138 289.364 M64.715 339.853 C 71.119 348.089,75.513 353.273,80.640 358.643 C 83.217 361.343,83.134 361.218,82.783 361.876 C 82.320 362.740,81.691 362.341,78.821 359.360 C 72.684 352.985,59.302 336.545,59.302 335.380 C 59.302 334.851,59.922 334.403,60.400 334.587 C 60.572 334.653,62.514 337.023,64.715 339.853 M57.791 379.072 C 63.029 380.468,68.363 380.833,72.709 380.093 C 75.045 379.694,75.581 379.811,75.581 380.718 C 75.581 383.108,58.198 382.410,54.244 379.861 C 53.342 379.280,53.771 377.960,54.767 378.253 C 55.023 378.328,56.384 378.697,57.791 379.072 M156.331 385.988 C 156.527 386.212,156.760 386.919,156.849 387.558 C 157.301 390.807,158.656 395.083,162.069 404.021 C 167.851 419.164,172.439 437.594,170.496 437.869 C 169.679 437.984,169.580 437.777,169.067 434.873 C 167.420 425.548,164.449 415.365,159.866 403.345 C 156.021 393.259,154.271 386.752,155.163 385.860 C 155.551 385.472,155.914 385.512,156.331 385.988 M172.364 449.809 C 175.376 451.492,175.761 455.221,173.264 458.544 C 169.874 463.056,162.659 458.628,164.315 453.052 C 165.327 449.646,169.247 448.067,172.364 449.809 M380.091 498.903 C 380.568 499.672,377.176 505.526,373.596 510.116 C 369.174 515.784,360.428 524.195,359.321 523.843 C 358.064 523.444,358.378 522.883,361.279 520.347 C 368.186 514.308,374.429 506.781,377.671 500.583 C 378.892 498.250,379.447 497.865,380.091 498.903 M175.967 508.832 C 179.172 510.670,179.369 515.112,176.385 518.223 C 173.481 521.251,167.668 518.212,167.677 513.670 C 167.685 509.367,172.253 506.702,175.967 508.832 " stroke="none" fill="#4b93cb" fill-rule="evenodd"></path><path id="path2" d="M197.558 0.368 C 193.021 1.025,190.092 1.791,187.326 3.041 C 186.814 3.272,185.326 3.926,184.020 4.495 C 182.111 5.326,178.978 7.211,178.372 7.894 C 178.210 8.076,175.911 9.494,174.651 10.188 C 172.280 11.495,171.198 12.032,169.651 12.671 C 168.756 13.040,167.919 13.409,167.791 13.490 C 167.663 13.571,167.087 13.780,166.512 13.953 C 165.936 14.127,165.360 14.338,165.233 14.421 C 165.034 14.549,162.618 15.313,160.116 16.038 C 159.733 16.149,158.320 16.573,156.977 16.979 C 154.818 17.633,153.721 17.999,149.586 19.443 C 145.048 21.028,139.484 25.079,135.930 29.386 C 135.419 30.006,134.889 30.634,134.754 30.780 C 134.254 31.322,131.370 35.868,130.854 36.927 C 130.561 37.530,130.204 38.233,130.063 38.488 C 127.717 42.716,127.475 44.475,128.046 53.130 C 128.244 56.121,127.897 58.479,126.281 65.116 C 125.629 67.793,125.085 69.988,124.896 70.698 C 124.553 71.992,123.884 74.983,123.518 76.860 C 122.921 79.920,122.761 81.000,122.550 83.372 C 122.425 84.779,122.208 87.238,122.067 88.837 C 121.599 94.148,122.073 98.412,123.502 101.744 C 124.876 104.948,126.805 108.940,127.023 109.031 C 127.126 109.074,127.209 109.254,127.209 109.431 C 127.209 109.608,127.427 110.140,127.692 110.613 C 129.260 113.404,130.538 117.563,130.935 121.163 C 131.741 128.485,132.019 130.536,132.290 131.163 C 132.428 131.483,132.707 132.843,132.909 134.186 C 133.887 140.659,135.830 143.697,138.656 143.167 C 141.474 142.638,142.614 138.938,142.067 132.096 C 141.131 120.396,141.660 117.854,146.576 110.403 C 148.030 108.199,149.361 106.029,149.534 105.581 C 149.706 105.134,150.396 103.616,151.067 102.209 C 154.096 95.851,155.267 89.529,154.655 82.835 C 153.805 73.536,157.645 64.347,163.608 61.411 C 169.186 58.665,178.734 58.720,188.837 61.555 C 202.753 65.460,208.101 65.828,214.419 63.316 C 220.924 60.729,225.909 59.789,234.070 59.611 C 257.328 59.102,263.089 63.706,263.374 83.023 C 263.566 96.087,264.817 102.046,268.625 108.046 C 272.534 114.205,273.816 119.508,274.187 131.047 C 274.483 140.250,275.432 142.937,277.878 141.492 C 279.767 140.376,280.227 138.181,280.360 129.651 C 280.501 120.614,280.912 117.359,282.474 112.925 C 283.323 110.513,284.167 107.451,284.658 105.000 C 284.928 103.654,285.614 101.097,286.094 99.651 C 286.222 99.267,286.413 98.640,286.519 98.256 C 287.647 94.181,287.729 93.680,287.926 89.651 C 288.039 87.349,288.231 84.680,288.352 83.721 C 289.168 77.257,289.298 75.989,289.300 74.529 C 289.306 70.271,288.555 67.136,286.547 63.030 C 285.199 60.273,282.749 56.396,281.472 55.000 C 281.238 54.744,280.736 54.116,280.356 53.604 C 279.977 53.093,278.791 51.628,277.720 50.349 C 275.496 47.692,275.336 47.497,274.070 45.924 C 272.531 44.010,272.451 43.912,272.204 43.637 C 272.074 43.491,271.612 42.813,271.178 42.130 C 270.744 41.447,270.271 40.766,270.127 40.618 C 269.982 40.470,269.458 39.616,268.961 38.721 C 268.465 37.826,267.852 36.727,267.600 36.279 C 267.347 35.831,266.827 34.890,266.443 34.186 C 262.918 27.726,261.274 25.519,257.921 22.744 C 256.778 21.798,253.065 19.876,251.047 19.185 C 248.061 18.165,244.613 17.842,240.340 18.184 C 235.882 18.540,235.784 18.491,234.889 15.449 C 231.819 5.008,214.317 -2.063,197.558 0.368 M176.860 93.268 C 170.569 94.250,165.112 98.391,166.980 100.765 C 167.772 101.772,168.539 101.768,171.931 100.739 C 176.729 99.284,179.039 99.225,182.746 100.460 C 187.175 101.935,189.285 101.684,189.669 99.637 C 190.349 96.014,182.923 92.321,176.860 93.268 M236.700 93.274 C 230.966 94.115,225.928 97.644,226.606 100.345 C 226.963 101.767,228.212 101.881,231.527 100.793 C 233.492 100.148,234.712 99.906,236.897 99.730 C 239.936 99.484,239.942 99.485,243.314 100.676 C 250.582 103.245,252.223 97.982,245.233 94.521 C 242.555 93.195,239.891 92.806,236.700 93.274 M176.571 117.702 C 171.815 119.530,170.187 125.454,173.517 128.815 C 176.178 131.501,181.275 131.440,183.011 128.702 C 186.803 122.724,182.524 115.414,176.571 117.702 M236.010 117.533 C 228.046 120.378,229.346 130.817,237.657 130.750 C 240.231 130.728,241.577 129.830,242.689 127.390 C 245.143 122.005,240.924 115.778,236.010 117.533 " stroke="none" fill="#1c2349" fill-rule="evenodd"></path><path id="path3" d="M174.820 59.470 C 175.233 59.522,175.966 59.522,176.448 59.472 C 176.931 59.422,176.593 59.380,175.698 59.379 C 174.802 59.378,174.408 59.419,174.820 59.470 M240.988 59.695 C 241.212 59.754,241.578 59.754,241.802 59.695 C 242.026 59.637,241.843 59.589,241.395 59.589 C 240.948 59.589,240.765 59.637,240.988 59.695 M258.256 65.116 C 258.755 65.628,259.216 66.047,259.280 66.047 C 259.344 66.047,258.988 65.628,258.488 65.116 C 257.989 64.605,257.528 64.186,257.464 64.186 C 257.400 64.186,257.756 64.605,258.256 65.116 M205.407 65.050 C 205.759 65.104,206.334 65.104,206.686 65.050 C 207.038 64.997,206.750 64.953,206.047 64.953 C 205.343 64.953,205.055 64.997,205.407 65.050 M263.345 82.791 C 263.345 84.390,263.383 85.044,263.428 84.244 C 263.473 83.445,263.473 82.137,263.428 81.337 C 263.383 80.538,263.345 81.192,263.345 82.791 M263.319 87.907 C 263.319 88.483,263.365 88.718,263.420 88.430 C 263.475 88.142,263.475 87.672,263.420 87.384 C 263.365 87.096,263.319 87.331,263.319 87.907 M187.674 95.887 C 187.674 95.927,188.015 96.267,188.430 96.643 L 189.186 97.326 188.503 96.570 C 187.866 95.865,187.674 95.707,187.674 95.887 M186.456 101.560 C 186.745 101.615,187.164 101.613,187.386 101.555 C 187.609 101.497,187.372 101.451,186.860 101.454 C 186.349 101.457,186.167 101.504,186.456 101.560 M246.221 101.559 C 246.509 101.615,246.980 101.615,247.267 101.559 C 247.555 101.504,247.320 101.459,246.744 101.459 C 246.169 101.459,245.933 101.504,246.221 101.559 M141.914 130.000 C 141.914 130.448,141.962 130.631,142.021 130.407 C 142.079 130.183,142.079 129.817,142.021 129.593 C 141.962 129.369,141.914 129.552,141.914 130.000 M280.287 130.000 C 280.287 130.448,280.334 130.631,280.393 130.407 C 280.451 130.183,280.451 129.817,280.393 129.593 C 280.334 129.369,280.287 129.552,280.287 130.000 M280.291 134.070 C 280.294 134.581,280.341 134.763,280.397 134.474 C 280.453 134.185,280.451 133.766,280.392 133.544 C 280.334 133.321,280.289 133.558,280.291 134.070 M344.974 289.012 C 344.832 289.108,344.531 289.552,344.304 290.000 C 344.077 290.448,342.719 292.698,341.285 295.000 C 335.739 303.908,334.759 305.965,335.695 306.742 C 336.312 307.254,336.708 306.809,338.114 304.022 C 338.875 302.513,340.711 299.343,342.194 296.977 C 345.738 291.323,346.475 289.901,346.138 289.364 C 345.847 288.901,345.358 288.753,344.974 289.012 M109.457 302.248 C 109.126 302.580,109.331 303.249,109.957 303.877 C 110.455 304.378,110.793 305.199,111.378 307.326 C 113.595 315.389,113.362 318.408,109.651 329.767 C 105.719 341.800,105.472 345.292,107.558 359.302 C 109.089 369.587,108.749 372.758,105.116 382.101 C 102.735 388.224,102.185 390.464,100.923 399.177 C 99.025 412.281,96.296 427.336,92.089 447.907 C 91.056 452.959,89.121 462.587,87.789 469.302 C 86.458 476.017,84.823 484.233,84.156 487.558 C 82.790 494.367,82.718 495.059,83.329 495.437 C 84.378 496.086,84.604 495.313,86.860 483.372 C 87.682 479.023,89.138 471.593,90.097 466.860 C 98.990 422.937,100.338 415.726,102.789 398.967 C 104.008 390.630,104.588 388.327,106.977 382.326 C 110.785 372.757,111.003 369.883,108.936 356.395 C 107.398 346.359,107.854 341.176,111.163 331.047 C 115.377 318.148,115.579 313.700,112.373 304.419 C 111.790 302.734,110.175 301.531,109.457 302.248 M331.412 312.422 C 330.496 313.526,325.974 329.957,324.314 338.214 C 319.539 361.963,319.562 381.000,324.421 428.953 C 325.612 440.709,327.319 465.094,328.018 480.349 C 328.094 482.012,328.362 487.558,328.614 492.674 C 329.263 505.893,329.764 518.889,329.766 522.586 C 329.767 525.848,330.117 531.316,330.947 541.047 C 331.208 544.116,331.482 549.087,331.555 552.093 C 331.691 557.715,331.770 558.140,332.674 558.140 C 333.610 558.140,333.658 557.799,333.462 552.558 C 333.286 547.857,333.046 544.418,332.214 534.651 C 332.023 532.413,331.761 527.128,331.632 522.907 C 331.310 512.380,330.974 503.689,330.580 495.698 C 330.397 491.988,330.138 486.703,330.004 483.953 C 329.329 470.059,328.565 457.406,327.786 447.209 C 327.126 438.562,327.050 437.701,325.814 424.767 C 324.321 409.145,323.939 404.803,323.501 398.488 C 321.158 364.664,323.258 343.898,331.758 316.829 C 332.326 315.020,332.791 313.279,332.791 312.958 C 332.791 312.147,331.921 311.808,331.412 312.422 M59.695 334.687 C 58.757 335.212,60.009 337.070,67.657 346.512 C 78.153 359.470,83.023 364.151,83.023 361.283 C 83.023 361.204,81.951 360.016,80.640 358.643 C 75.513 353.273,71.119 348.089,64.715 339.853 C 60.594 334.554,60.361 334.314,59.695 334.687 M54.012 378.407 C 53.000 379.419,53.904 379.990,58.140 381.015 C 65.725 382.852,75.581 382.684,75.581 380.718 C 75.581 379.811,75.045 379.694,72.709 380.093 C 67.625 380.959,62.005 380.383,54.767 378.253 C 54.512 378.177,54.172 378.247,54.012 378.407 M155.163 385.860 C 154.271 386.752,156.021 393.259,159.866 403.345 C 164.449 415.365,167.420 425.548,169.067 434.873 C 169.580 437.777,169.679 437.984,170.496 437.869 C 172.439 437.594,167.851 419.164,162.069 404.021 C 158.656 395.083,157.301 390.807,156.849 387.558 C 156.620 385.914,155.867 385.156,155.163 385.860 M168.140 449.273 C 164.396 450.082,162.741 455.165,165.261 458.110 C 167.698 460.956,171.305 461.152,173.264 458.544 C 176.934 453.659,173.830 448.042,168.140 449.273 M378.915 498.549 C 378.766 498.645,378.206 499.561,377.671 500.583 C 374.429 506.781,368.186 514.308,361.279 520.347 C 358.378 522.883,358.064 523.444,359.321 523.843 C 360.428 524.195,369.174 515.784,373.596 510.116 C 377.176 505.526,380.568 499.672,380.091 498.903 C 379.800 498.434,379.317 498.288,378.915 498.549 M170.930 508.510 C 165.650 510.797,167.152 518.533,173.048 519.417 C 176.942 520.001,180.093 513.636,177.627 510.167 C 176.382 508.416,173.051 507.592,170.930 508.510 " stroke="none" fill="#2d567e" fill-rule="evenodd"></path><path id="path4" d="M154.485 79.884 C 154.487 80.523,154.532 80.757,154.585 80.404 C 154.639 80.050,154.638 79.527,154.582 79.241 C 154.527 78.955,154.483 79.244,154.485 79.884 M61.801 87.229 C 60.324 88.089,60.057 91.533,61.244 94.419 L 61.866 95.930 60.642 97.030 C 59.499 98.057,57.472 99.070,56.561 99.069 C 56.342 99.069,55.865 98.598,55.502 98.022 C 53.188 94.360,49.678 94.290,49.678 97.907 C 49.678 99.942,50.853 100.920,53.524 101.111 L 55.076 101.222 55.552 102.530 C 56.146 104.159,56.903 107.378,57.090 109.070 C 57.446 112.290,58.186 116.931,58.683 119.070 C 58.877 119.901,59.197 121.509,59.394 122.642 C 59.791 124.918,60.022 125.349,60.847 125.349 C 62.130 125.349,62.102 124.768,60.436 116.744 C 60.316 116.169,60.016 114.330,59.768 112.658 C 59.213 108.905,58.284 104.458,57.677 102.644 C 57.134 101.019,57.125 100.932,57.500 100.925 C 58.267 100.910,60.562 99.721,61.703 98.746 L 62.977 97.658 64.489 98.802 C 65.420 99.508,66.612 100.148,67.594 100.470 C 68.469 100.758,69.220 101.022,69.262 101.057 C 69.304 101.092,69.071 101.941,68.745 102.944 C 68.095 104.942,67.139 109.523,66.761 112.442 C 66.475 114.658,66.285 115.709,65.487 119.489 C 64.567 123.853,64.688 125.349,65.963 125.349 C 66.673 125.349,66.770 125.129,67.131 122.696 C 67.304 121.533,67.692 119.430,67.994 118.023 C 68.524 115.553,68.741 114.217,69.300 110.000 C 69.615 107.622,70.544 103.506,71.066 102.181 L 71.443 101.222 72.991 101.111 C 75.696 100.918,76.846 99.939,76.815 97.855 C 76.759 94.165,72.428 94.664,70.622 98.569 C 70.187 99.509,66.868 98.416,65.174 96.775 C 64.301 95.928,64.321 96.037,64.770 94.556 C 66.083 90.227,64.282 85.784,61.801 87.229 M63.229 91.395 C 63.257 93.229,62.907 93.618,62.584 92.112 C 62.262 90.611,62.263 90.418,62.591 89.608 L 62.856 88.953 63.033 89.535 C 63.130 89.855,63.218 90.692,63.229 91.395 M26.802 97.148 C 27.410 97.196,28.404 97.196,29.012 97.148 C 29.619 97.100,29.122 97.061,27.907 97.061 C 26.692 97.061,26.195 97.100,26.802 97.148 M94.599 97.147 C 95.146 97.196,95.983 97.196,96.460 97.146 C 96.936 97.096,96.488 97.056,95.465 97.056 C 94.442 97.057,94.052 97.098,94.599 97.147 M97.733 97.137 C 97.956 97.196,98.323 97.196,98.547 97.137 C 98.770 97.079,98.587 97.031,98.140 97.031 C 97.692 97.031,97.509 97.079,97.733 97.137 M52.988 98.081 L 53.837 98.953 53.209 99.026 C 52.244 99.137,51.628 98.698,51.628 97.899 C 51.628 96.984,51.964 97.029,52.988 98.081 M74.884 97.899 C 74.884 98.663,74.364 99.070,73.387 99.070 C 72.581 99.070,72.636 98.788,73.613 97.931 C 74.637 97.031,74.884 97.025,74.884 97.899 M213.827 113.118 C 213.282 113.517,213.068 115.212,213.045 119.302 C 213.014 124.681,213.242 125.883,215.623 132.894 C 218.470 141.280,218.518 143.031,215.940 144.542 C 213.744 145.828,211.279 145.507,208.442 143.565 C 206.194 142.025,204.737 142.674,206.557 144.404 C 208.762 146.500,212.727 147.654,215.061 146.879 C 218.365 145.781,219.426 144.271,219.402 140.698 C 219.385 138.039,219.319 137.797,216.539 130.052 C 214.970 125.682,214.451 121.607,214.858 116.860 C 215.184 113.068,215.195 113.314,214.683 113.040 C 214.376 112.876,214.127 112.899,213.827 113.118 M173.590 119.593 L 172.907 120.349 173.663 119.666 C 174.078 119.290,174.419 118.950,174.419 118.910 C 174.419 118.730,174.227 118.888,173.590 119.593 M141.702 124.419 C 141.702 125.250,141.745 125.590,141.796 125.174 C 141.848 124.759,141.848 124.078,141.796 123.663 C 141.745 123.247,141.702 123.587,141.702 124.419 M230.524 124.302 C 230.526 124.814,230.574 124.996,230.630 124.707 C 230.685 124.417,230.683 123.999,230.625 123.776 C 230.567 123.554,230.521 123.791,230.524 124.302 M274.036 131.744 C 274.035 132.895,274.075 133.396,274.123 132.856 C 274.172 132.316,274.173 131.374,274.125 130.763 C 274.077 130.151,274.037 130.593,274.036 131.744 M123.256 134.479 C 122.188 135.048,121.662 135.892,121.934 136.601 C 122.149 137.161,123.013 137.056,123.625 136.395 C 125.078 134.827,128.346 136.843,129.287 139.888 L 129.748 141.382 129.272 143.191 C 128.424 146.409,128.990 147.887,131.844 149.905 C 132.715 150.521,133.668 151.376,133.962 151.804 C 134.644 152.800,135.655 152.809,135.770 151.818 C 135.860 151.038,134.688 149.684,132.735 148.315 C 130.683 146.874,130.338 145.911,131.044 143.583 C 132.615 138.406,127.376 132.282,123.256 134.479 M285.881 135.220 C 282.347 136.865,280.753 140.791,282.024 144.717 C 282.718 146.860,282.335 147.649,279.624 149.660 C 278.714 150.335,277.746 151.201,277.473 151.584 C 276.218 153.346,277.414 154.460,278.786 152.808 C 279.229 152.276,280.187 151.435,280.917 150.939 C 283.952 148.878,284.523 147.508,283.711 144.238 C 282.931 141.098,283.654 138.799,285.879 137.338 C 287.667 136.164,288.519 136.077,289.624 136.955 C 290.978 138.031,291.997 137.241,291.032 135.864 C 290.112 134.550,287.911 134.275,285.881 135.220 M240.524 208.256 C 240.526 208.767,240.574 208.949,240.630 208.660 C 240.685 208.371,240.683 207.952,240.625 207.730 C 240.567 207.508,240.521 207.744,240.524 208.256 M240.524 210.116 C 240.526 210.628,240.574 210.810,240.630 210.521 C 240.685 210.231,240.683 209.813,240.625 209.590 C 240.567 209.368,240.521 209.605,240.524 210.116 M85.116 210.849 C 80.052 211.618,74.594 214.404,75.358 215.831 C 75.693 216.457,76.228 216.390,77.442 215.570 C 79.418 214.236,82.071 213.199,84.627 212.763 C 86.326 212.473,86.744 212.245,86.744 211.608 C 86.744 211.255,86.036 210.615,85.771 210.729 C 85.731 210.747,85.436 210.801,85.116 210.849 M240.054 218.140 C 240.054 218.587,240.102 218.770,240.160 218.547 C 240.219 218.323,240.219 217.956,240.160 217.733 C 240.102 217.509,240.054 217.692,240.054 218.140 M240.054 222.326 C 240.054 222.773,240.102 222.956,240.160 222.733 C 240.219 222.509,240.219 222.142,240.160 221.919 C 240.102 221.695,240.054 221.878,240.054 222.326 M109.225 227.132 C 108.868 227.488,109.119 228.370,109.850 229.327 C 113.504 234.115,114.463 244.967,111.726 250.556 C 110.167 253.741,106.744 255.696,106.744 253.403 C 106.744 249.739,105.701 246.767,103.085 242.981 C 96.895 234.024,93.487 231.781,86.047 231.767 C 81.164 231.757,78.605 232.269,78.605 233.256 C 78.605 234.118,79.120 234.217,81.541 233.820 C 90.868 232.293,95.265 234.616,102.037 244.651 C 104.997 249.037,105.728 253.587,104.281 258.605 C 102.391 265.154,95.829 269.652,91.919 267.079 L 90.930 266.429 90.927 264.901 C 90.918 261.273,89.630 258.154,86.906 255.164 C 82.373 250.189,76.977 247.057,76.977 249.402 C 76.977 249.888,77.248 250.117,78.663 250.827 C 86.598 254.809,90.550 262.224,88.711 269.683 C 86.495 278.673,78.282 280.031,78.245 271.413 C 78.232 268.369,77.793 267.344,75.636 265.326 C 73.599 263.420,73.169 263.161,72.574 263.480 C 71.749 263.921,72.034 264.519,73.844 266.146 C 76.204 268.266,76.496 268.887,76.440 271.652 C 76.228 282.097,87.856 281.010,90.387 270.349 C 90.600 269.453,90.796 268.691,90.823 268.653 C 90.850 268.616,91.245 268.806,91.702 269.076 C 92.623 269.619,94.141 269.758,95.893 269.459 L 97.018 269.268 96.038 270.710 C 94.246 273.350,91.670 279.466,91.995 280.313 C 92.474 281.561,93.512 280.834,94.157 278.799 C 95.465 274.667,98.638 269.509,102.073 265.930 C 104.361 263.545,105.947 260.399,106.407 257.328 C 106.555 256.342,106.608 256.279,107.294 256.277 C 112.865 256.259,116.443 246.543,114.572 236.512 C 113.540 230.977,110.577 225.780,109.225 227.132 " stroke="none" fill="#ac4414" fill-rule="evenodd"></path></g></svg>